<svg xmlns="http://www.w3.org/2000/svg" width="123" height="123" viewBox="0 0 123 123" fill="none">
  <path fill-rule="evenodd" clip-rule="evenodd" d="M101.2 11.5657H21.6857C16.0966 11.5657 11.5657 16.0966 11.5657 21.6857V101.2C11.5657 106.789 16.0966 111.32 21.6857 111.32H101.2C106.789 111.32 111.32 106.789 111.32 101.2V21.6857C111.32 16.0966 106.789 11.5657 101.2 11.5657ZM21.6857 0C9.70902 0 0 9.70902 0 21.6857V101.2C0 113.177 9.70902 122.886 21.6857 122.886H101.2C113.177 122.886 122.886 113.177 122.886 101.2V21.6857C122.886 9.70902 113.177 0 101.2 0H21.6857Z" fill="#0C0F13"/>
  <path d="M26.7276 46.1181V37.1729H63.6192V46.1181H50.2105V85.7127H40.0653V46.1181H26.7276Z" fill="#0C0F13"/>
  <path d="M80.9991 61.9976H65.6749V53.8151H96.4652L78.9417 77.5303H94.4078V85.7127H62.9081L80.9991 61.9976Z" fill="#0C0F13"/>
</svg>